<svg xmlns="http://www.w3.org/2000/svg" xmlns:svg="http://www.w3.org/2000/svg" id="f394fb39-4024-46e8-9a68-3f5e53f52bfd" width="224" height="224" data-name="Ebene 1" version="1.1" viewBox="0 0 224 224"><defs id="defs177"><style id="style170">.a8bd947d-a1f8-4a14-8069-c9663505e4b1{fill:url(#b905e2c4-4772-4914-b70f-44b4d19aca4b)}.a4ee1f07-8fee-4200-835a-e030a32bca90{fill:none;stroke:#1d1d1b;stroke-miterlimit:10;stroke-width:5px}</style><linearGradient id="b905e2c4-4772-4914-b70f-44b4d19aca4b" x1="26.38" x2="231.72" y1="231.72" y2="26.38" gradientTransform="translate(-26.379999,-26.379999)" gradientUnits="userSpaceOnUse"><stop id="stop172" offset="0" stop-color="#9afbfe"/><stop id="stop174" offset=".8" stop-color="#ffb3e0"/></linearGradient></defs><rect id="rect179" width="224" height="224" x="0" y="0" class="a8bd947d-a1f8-4a14-8069-c9663505e4b1" style="fill:url(#b905e2c4-4772-4914-b70f-44b4d19aca4b)"/><path id="bfa29dbe-bd65-4058-95bb-bdb844b1d3b1" d="m 203.19,155.51 -4,24.19 m -178.279999,-23.2 14.81,14 M 131.48,32.850001 35.620001,170.31 a 0.09,0.09 0 0 0 0.07,0.15 L 199.1,179.83 a 0.09,0.09 0 0 0 0.09,-0.13 L 131.62,32.870001 a 0.1,0.1 0 0 0 -0.14,-0.02 z m -19.74,-13.29 L 20.800001,156.31 a 0.13,0.13 0 0 0 0.11,0.19 L 203.09,155.7 a 0.12,0.12 0 0 0 0.1,-0.19 L 111.95,19.560001 a 0.12,0.12 0 0 0 -0.21,0 z m 0.11,-0.16 19.77,13.32" class="a4ee1f07-8fee-4200-835a-e030a32bca90"/></svg>